<mxfile host="Electron" modified="2024-02-04T21:32:00.053Z" agent="Mozilla/5.0 (Macintosh; Intel Mac OS X 10_15_7) AppleWebKit/537.36 (KHTML, like Gecko) draw.io/22.0.3 Chrome/114.0.5735.289 Electron/25.8.4 Safari/537.36" etag="BqDXlth6_uu6Hg4A556b" version="22.0.3" type="device">
  <diagram name="Page-1" id="6WPlM5D86BGVv2dStAqk">
    <mxGraphModel dx="954" dy="623" grid="1" gridSize="10" guides="1" tooltips="1" connect="1" arrows="1" fold="1" page="1" pageScale="1" pageWidth="827" pageHeight="1169" math="0" shadow="0">
      <root>
        <mxCell id="0" />
        <mxCell id="1" parent="0" />
        <mxCell id="lDQWgn9iZDzO8cm3zySR-2" value="REPL" style="rounded=1;whiteSpace=wrap;html=1;" vertex="1" parent="1">
          <mxGeometry x="520" y="80" width="120" height="60" as="geometry" />
        </mxCell>
        <mxCell id="lDQWgn9iZDzO8cm3zySR-3" value="NWD" style="rounded=1;whiteSpace=wrap;html=1;" vertex="1" parent="1">
          <mxGeometry x="520" y="160" width="120" height="60" as="geometry" />
        </mxCell>
        <mxCell id="lDQWgn9iZDzO8cm3zySR-4" value="FS" style="rounded=1;whiteSpace=wrap;html=1;" vertex="1" parent="1">
          <mxGeometry x="520" y="240" width="120" height="60" as="geometry" />
        </mxCell>
        <mxCell id="lDQWgn9iZDzO8cm3zySR-5" value="OS" style="rounded=1;whiteSpace=wrap;html=1;" vertex="1" parent="1">
          <mxGeometry x="520" y="320" width="120" height="60" as="geometry" />
        </mxCell>
        <mxCell id="lDQWgn9iZDzO8cm3zySR-6" value="HASH" style="rounded=1;whiteSpace=wrap;html=1;" vertex="1" parent="1">
          <mxGeometry x="520" y="400" width="120" height="60" as="geometry" />
        </mxCell>
        <mxCell id="lDQWgn9iZDzO8cm3zySR-7" value="ZIP" style="rounded=1;whiteSpace=wrap;html=1;" vertex="1" parent="1">
          <mxGeometry x="520" y="480" width="120" height="60" as="geometry" />
        </mxCell>
        <mxCell id="lDQWgn9iZDzO8cm3zySR-8" value="Command Services:" style="text;html=1;align=center;verticalAlign=middle;resizable=0;points=[];autosize=1;strokeColor=none;fillColor=none;" vertex="1" parent="1">
          <mxGeometry x="515" y="40" width="130" height="30" as="geometry" />
        </mxCell>
        <mxCell id="lDQWgn9iZDzO8cm3zySR-9" value="APP" style="rounded=1;whiteSpace=wrap;html=1;" vertex="1" parent="1">
          <mxGeometry x="320" y="270" width="120" height="60" as="geometry" />
        </mxCell>
        <mxCell id="lDQWgn9iZDzO8cm3zySR-13" style="edgeStyle=orthogonalEdgeStyle;rounded=0;orthogonalLoop=1;jettySize=auto;html=1;exitX=1;exitY=0.5;exitDx=0;exitDy=0;entryX=0;entryY=0.5;entryDx=0;entryDy=0;" edge="1" parent="1" source="lDQWgn9iZDzO8cm3zySR-11" target="lDQWgn9iZDzO8cm3zySR-9">
          <mxGeometry relative="1" as="geometry" />
        </mxCell>
        <mxCell id="lDQWgn9iZDzO8cm3zySR-11" value="index.js" style="rounded=1;whiteSpace=wrap;html=1;" vertex="1" parent="1">
          <mxGeometry x="120" y="270" width="120" height="60" as="geometry" />
        </mxCell>
        <mxCell id="lDQWgn9iZDzO8cm3zySR-14" value="" style="endArrow=classic;startArrow=classic;html=1;rounded=0;entryX=0;entryY=0.5;entryDx=0;entryDy=0;exitX=1;exitY=0.5;exitDx=0;exitDy=0;" edge="1" parent="1" source="lDQWgn9iZDzO8cm3zySR-9" target="lDQWgn9iZDzO8cm3zySR-2">
          <mxGeometry width="50" height="50" relative="1" as="geometry">
            <mxPoint x="380" y="290" as="sourcePoint" />
            <mxPoint x="430" y="240" as="targetPoint" />
          </mxGeometry>
        </mxCell>
        <mxCell id="lDQWgn9iZDzO8cm3zySR-15" value="" style="endArrow=classic;startArrow=classic;html=1;rounded=0;entryX=0;entryY=0.5;entryDx=0;entryDy=0;exitX=1;exitY=0.5;exitDx=0;exitDy=0;" edge="1" parent="1" source="lDQWgn9iZDzO8cm3zySR-9" target="lDQWgn9iZDzO8cm3zySR-3">
          <mxGeometry width="50" height="50" relative="1" as="geometry">
            <mxPoint x="450" y="310" as="sourcePoint" />
            <mxPoint x="530" y="120" as="targetPoint" />
          </mxGeometry>
        </mxCell>
        <mxCell id="lDQWgn9iZDzO8cm3zySR-16" value="" style="endArrow=classic;startArrow=classic;html=1;rounded=0;entryX=0;entryY=0.5;entryDx=0;entryDy=0;" edge="1" parent="1" target="lDQWgn9iZDzO8cm3zySR-4">
          <mxGeometry width="50" height="50" relative="1" as="geometry">
            <mxPoint x="440" y="300" as="sourcePoint" />
            <mxPoint x="530" y="200" as="targetPoint" />
          </mxGeometry>
        </mxCell>
        <mxCell id="lDQWgn9iZDzO8cm3zySR-17" value="" style="endArrow=classic;startArrow=classic;html=1;rounded=0;entryX=0;entryY=0.5;entryDx=0;entryDy=0;" edge="1" parent="1" target="lDQWgn9iZDzO8cm3zySR-5">
          <mxGeometry width="50" height="50" relative="1" as="geometry">
            <mxPoint x="440" y="300" as="sourcePoint" />
            <mxPoint x="530" y="280" as="targetPoint" />
          </mxGeometry>
        </mxCell>
        <mxCell id="lDQWgn9iZDzO8cm3zySR-18" value="" style="endArrow=classic;startArrow=classic;html=1;rounded=0;entryX=0;entryY=0.5;entryDx=0;entryDy=0;" edge="1" parent="1" target="lDQWgn9iZDzO8cm3zySR-6">
          <mxGeometry width="50" height="50" relative="1" as="geometry">
            <mxPoint x="440" y="300" as="sourcePoint" />
            <mxPoint x="530" y="360" as="targetPoint" />
          </mxGeometry>
        </mxCell>
        <mxCell id="lDQWgn9iZDzO8cm3zySR-19" value="" style="endArrow=classic;startArrow=classic;html=1;rounded=0;entryX=0;entryY=0.5;entryDx=0;entryDy=0;" edge="1" parent="1" target="lDQWgn9iZDzO8cm3zySR-7">
          <mxGeometry width="50" height="50" relative="1" as="geometry">
            <mxPoint x="440" y="300" as="sourcePoint" />
            <mxPoint x="530" y="440" as="targetPoint" />
          </mxGeometry>
        </mxCell>
        <mxCell id="lDQWgn9iZDzO8cm3zySR-20" value="Start point:" style="text;html=1;align=center;verticalAlign=middle;resizable=0;points=[];autosize=1;strokeColor=none;fillColor=none;" vertex="1" parent="1">
          <mxGeometry x="140" y="240" width="80" height="30" as="geometry" />
        </mxCell>
        <mxCell id="lDQWgn9iZDzO8cm3zySR-21" value="App:" style="text;html=1;align=center;verticalAlign=middle;resizable=0;points=[];autosize=1;strokeColor=none;fillColor=none;" vertex="1" parent="1">
          <mxGeometry x="355" y="240" width="50" height="30" as="geometry" />
        </mxCell>
        <mxCell id="lDQWgn9iZDzO8cm3zySR-22" value="module" style="rounded=1;whiteSpace=wrap;html=1;rotation=90;" vertex="1" parent="1">
          <mxGeometry x="285" y="390" width="120" height="60" as="geometry" />
        </mxCell>
        <mxCell id="lDQWgn9iZDzO8cm3zySR-23" value="controller" style="rounded=1;whiteSpace=wrap;html=1;rotation=90;" vertex="1" parent="1">
          <mxGeometry x="355" y="390" width="120" height="60" as="geometry" />
        </mxCell>
        <mxCell id="lDQWgn9iZDzO8cm3zySR-26" value="" style="endArrow=classic;startArrow=classic;html=1;rounded=0;entryX=0.5;entryY=1;entryDx=0;entryDy=0;exitX=0;exitY=0.5;exitDx=0;exitDy=0;" edge="1" parent="1" source="lDQWgn9iZDzO8cm3zySR-22" target="lDQWgn9iZDzO8cm3zySR-9">
          <mxGeometry width="50" height="50" relative="1" as="geometry">
            <mxPoint x="380" y="440" as="sourcePoint" />
            <mxPoint x="430" y="390" as="targetPoint" />
          </mxGeometry>
        </mxCell>
        <mxCell id="lDQWgn9iZDzO8cm3zySR-27" value="" style="endArrow=classic;startArrow=classic;html=1;rounded=0;exitX=0;exitY=0.5;exitDx=0;exitDy=0;" edge="1" parent="1" source="lDQWgn9iZDzO8cm3zySR-23">
          <mxGeometry width="50" height="50" relative="1" as="geometry">
            <mxPoint x="355" y="370" as="sourcePoint" />
            <mxPoint x="380" y="330" as="targetPoint" />
          </mxGeometry>
        </mxCell>
      </root>
    </mxGraphModel>
  </diagram>
</mxfile>
